<?xml version="1.0" standalone="no"?>
<!DOCTYPE svg PUBLIC "-//W3C//DTD SVG 20010904//EN"
 "http://www.w3.org/TR/2001/REC-SVG-20010904/DTD/svg10.dtd">
<svg version="1.0" xmlns="http://www.w3.org/2000/svg"
 width="128.000000pt" height="128.000000pt" viewBox="0 0 128.000000 128.000000"
 preserveAspectRatio="xMidYMid meet">
<metadata>
Created by potrace 1.14, written by Peter Selinger 2001-2017
</metadata>
<g transform="translate(0.000000,128.000000) scale(0.100000,-0.100000)"
fill="#000000" stroke="none">
<path d="M550 1273 c-20 -3 -83 -20 -140 -38 -128 -40 -288 -190 -347 -325
-46 -104 -54 -140 -59 -245 -14 -360 275 -665 632 -665 115 0 179 13 269 55
145 67 253 175 320 320 108 233 58 513 -125 705 -115 121 -268 189 -435 194
-49 1 -101 1 -115 -1z"/>
</g>
</svg>
